# xmcd CD database file
#
# Track frame offsets:
#	150
#	20515
#	34387
#	46925
#	61920
#	75035
#	89400
#	104475
#	118082
#	132162
#	146775
#	160180
#	172765
#	187287
#	200185
#	212402
#	227565
#	241600
#	254807
#	269395
#	283790
#	297770
#
# Disc length: 4163 seconds
#
# Revision: 2
# Processed by: cddbd v1.5.2PL0 Copyright (c) Steve Scherf et al.
# Submitted via: CDex 1.51
#
DISCID=42104116
DTITLE=Bing Crosby - That's Jazz
DYEAR=1991
DGENRE=Jazz
TTITLE0=St. Louis Blues (1932-02-11, Duke Ellington)
TTITLE1=Please (1932-09-16, Anson Weeks)
TTITLE2=Temptation (1933-10-22, Lennie Hayton)
TTITLE3=Did You Ever See A Dream Walking (1933-12-11, Lennie Hayton)
TTITLE4=(I Don't Stand) A Ghost Of A Chance With You (1932-10-14)
TTITLE5=Down The Old Ox Road (1933-06-16, Jimmy Grier)
TTITLE6=Black Moonlight (1933-08-27, Jimmy Grier)
TTITLE7=Where The Blue Of The Night (Meets The Gold Of The Day) (1931-11-23)
TTITLE8=The Last Round Up (1933-09-27, Lennie Hayton)
TTITLE9=Someday Sweetheart (1934-08-08, George Stoll)
TTITLE10=How Deep Is The Ocean? (1932-10-14)
TTITLE11=Our Big Love Scene (1933-10-22, Lennie Hayton)
TTITLE12=Song Of The Islands (1936-07-23, Dick McIntyre and His Harmony Hawaiians)
TTITLE13=Dinah (1931-12-16, Mills Brothers)
TTITLE14=I'm An Old Cowhand (1936-07-17, Jimmy Dorsey)
TTITLE15=Wrap Your Troubles In Dreams (And Dream Your Troubles Away) (1931-03-02, Gus Arnheim)
TTITLE16=Blue Hawaii (1937-02-23, Lani McIntyre and His Hawaiians)
TTITLE17=Sailor Beware (1935-11-13, George Stoll)
TTITLE18=Sweet Leilani (1937-02-23, Lani McIntyre and His Hawaiians)
TTITLE19=Pennies From Heaven (1936-07-24, George Stoll)
TTITLE20=Happy-Go-Lucky You (And Broken Hearted Me) (1932-04-23, Isham Jones)
TTITLE21=Thanks (1933-08-27, Jimmy Grier)
EXTD=YEAR: 1991
EXTT0=
EXTT1=
EXTT2=
EXTT3=
EXTT4=
EXTT5=
EXTT6=
EXTT7=
EXTT8=
EXTT9=
EXTT10=
EXTT11=
EXTT12=
EXTT13=
EXTT14=
EXTT15=
EXTT16=
EXTT17=
EXTT18=
EXTT19=
EXTT20=
EXTT21=
PLAYORDER=
